<?xml version="1.0" standalone="no"?>
<!DOCTYPE svg PUBLIC "-//W3C//DTD SVG 20010904//EN"
 "http://www.w3.org/TR/2001/REC-SVG-20010904/DTD/svg10.dtd">
<svg version="1.0" xmlns="http://www.w3.org/2000/svg"
 width="450.000000pt" height="139.000000pt" viewBox="0 0 450.000000 139.000000"
 preserveAspectRatio="xMidYMid meet">

<g transform="translate(0.000000,139.000000) scale(0.100000,-0.100000)"
fill="#000000" stroke="none">
<path d="M1023 1378 c-17 -6 -47 -23 -65 -38 -33 -28 -33 -28 -36 -129 l-4
-101 -49 0 -49 0 0 -40 0 -40 50 0 50 0 0 -340 0 -340 45 0 45 0 0 340 0 340
105 0 105 0 0 40 0 40 -105 0 -105 0 0 64 c0 55 4 69 26 95 33 40 83 53 167
43 74 -9 79 -4 57 52 -9 26 -11 26 -107 25 -54 -1 -112 -6 -130 -11z"/>
<path d="M3680 870 l0 -510 45 0 45 0 0 510 0 510 -45 0 -45 0 0 -510z"/>
<path d="M0 860 l0 -510 300 0 300 0 0 40 0 40 -245 0 -245 0 0 470 0 470 -55
0 -55 0 0 -510z"/>
<path d="M660 1280 c-11 -11 -20 -31 -20 -45 0 -14 9 -34 20 -45 41 -41 110
-10 110 48 0 57 -69 83 -110 42z"/>
<path d="M2558 1263 c-28 -4 -28 -5 -28 -79 l0 -74 -45 0 -45 0 0 -40 0 -40
45 0 45 0 0 -291 c0 -333 2 -343 73 -375 30 -14 65 -19 128 -19 106 0 139 17
139 70 0 19 -2 35 -3 35 -2 0 -30 -9 -63 -20 -67 -24 -112 -20 -140 11 -18 19
-19 43 -22 305 l-3 284 106 0 105 0 0 45 0 45 -110 0 -110 0 0 75 c0 83 3 79
-72 68z"/>
<path d="M1480 1127 c-109 -25 -196 -91 -241 -182 -29 -59 -33 -78 -37 -172
-5 -120 7 -194 46 -266 80 -150 289 -212 517 -154 48 12 50 13 57 56 4 25 7
46 5 47 -1 1 -40 -9 -87 -23 -151 -44 -292 -18 -365 69 -33 39 -62 121 -70
201 l-7 67 285 0 c281 0 286 0 292 21 18 55 -26 185 -84 252 -66 74 -196 110
-311 84z m188 -98 c53 -26 90 -79 98 -142 l7 -47 -227 0 -226 0 0 23 c1 32 33
98 63 126 63 58 206 78 285 40z"/>
<path d="M4073 1129 c-61 -18 -156 -92 -190 -148 -40 -67 -53 -127 -53 -245 0
-141 26 -215 99 -287 71 -69 143 -100 254 -107 76 -5 216 12 248 29 17 9 32
89 17 89 -5 0 -41 -9 -80 -20 -94 -26 -208 -26 -264 -1 -104 47 -156 130 -170
269 l-7 72 288 0 287 0 -4 73 c-4 84 -29 143 -85 201 -61 63 -122 86 -223 85
-47 0 -99 -5 -117 -10z m212 -88 c50 -22 91 -69 105 -119 21 -77 37 -72 -219
-72 l-229 0 10 42 c10 47 46 100 85 125 64 42 183 54 248 24z"/>
<path d="M2892 1103 c3 -10 69 -183 147 -385 77 -202 141 -373 141 -380 0 -21
-58 -136 -92 -185 -18 -25 -45 -51 -60 -59 -38 -20 -97 -17 -143 6 -22 11 -40
20 -41 20 -10 0 12 -98 24 -108 10 -7 49 -12 107 -12 83 0 95 3 136 28 24 16
61 53 81 83 32 47 428 972 428 1000 0 6 -22 9 -57 7 l-57 -3 -127 -329 c-101
-261 -129 -325 -136 -310 -5 10 -61 160 -124 331 l-114 313 -59 0 c-51 0 -58
-2 -54 -17z"/>
<path d="M660 730 l0 -380 50 0 50 0 0 380 0 380 -50 0 -50 0 0 -380z"/>
<path d="M2041 1091 c-106 -37 -136 -109 -89 -213 29 -62 64 -99 196 -205 139
-112 159 -158 99 -218 -52 -52 -155 -56 -287 -11 -24 8 -46 14 -47 12 -2 -1 0
-23 3 -48 8 -54 8 -55 159 -64 151 -10 257 22 291 87 20 40 18 132 -5 177 -23
44 -87 106 -156 152 -90 60 -122 91 -149 140 -22 41 -25 52 -15 74 25 54 140
75 258 46 29 -7 54 -10 57 -7 3 2 2 23 -2 45 -8 50 -15 52 -154 52 -76 -1
-120 -6 -159 -19z"/>
</g>
</svg>
